<?xml version="1.0" standalone="no"?>
<!DOCTYPE svg PUBLIC "-//W3C//DTD SVG 20010904//EN"
 "http://www.w3.org/TR/2001/REC-SVG-20010904/DTD/svg10.dtd">
<svg version="1.0" xmlns="http://www.w3.org/2000/svg"
 width="351.000000pt" height="351.000000pt" viewBox="0 0 351.000000 351.000000"
 preserveAspectRatio="xMidYMid meet">

<g transform="translate(0.000000,351.000000) scale(0.100000,-0.100000)"
fill="#000000" stroke="none">
<path d="M1495 2585 c-293 -104 -506 -319 -595 -600 -31 -97 -39 -290 -16
-398 45 -220 189 -431 378 -555 310 -202 703 -199 1002 8 90 62 176 146 229
224 57 84 117 218 124 276 5 46 4 50 -20 61 -37 17 -49 3 -81 -86 -72 -202
-208 -355 -401 -451 -138 -68 -232 -88 -385 -81 -136 6 -220 27 -325 79 -214
107 -362 288 -420 514 -24 92 -25 266 -2 354 23 89 96 233 154 305 98 121 265
234 416 281 68 21 96 47 81 72 -16 26 -61 24 -139 -3z"/>
<path d="M1890 2591 c-15 -28 14 -56 80 -76 284 -89 518 -342 565 -611 7 -39
15 -76 18 -82 13 -19 46 -20 63 -1 32 35 2 182 -64 314 -101 205 -319 383
-557 456 -76 24 -92 24 -105 0z"/>
<path d="M1714 2529 c-69 -19 -118 -97 -80 -128 18 -15 41 -5 61 25 21 32 53
44 88 32 50 -18 64 -84 25 -116 -64 -51 -78 -70 -78 -111 0 -37 -7 -48 -67
-110 l-68 -70 -231 -76 c-254 -83 -284 -100 -284 -161 0 -21 8 -42 20 -54 19
-19 31 -20 242 -18 198 3 222 5 232 21 8 12 8 22 0 35 -10 15 -35 18 -210 22
l-199 5 251 82 c224 74 256 87 296 123 45 39 68 50 68 31 0 -5 19 -23 42 -40
29 -21 114 -55 272 -107 127 -42 238 -80 246 -85 9 -5 -67 -9 -182 -9 -187 0
-198 -1 -208 -20 -8 -14 -8 -26 0 -40 10 -19 21 -20 226 -20 215 0 215 0 239
25 35 34 32 71 -8 109 -27 25 -74 44 -248 100 -118 38 -224 75 -237 83 -12 7
-33 32 -47 54 -14 22 -37 45 -51 51 -40 19 -27 68 31 121 48 44 64 89 51 141
-19 75 -113 126 -192 105z"/>
<path d="M1516 2254 c-19 -18 -21 -55 -4 -72 7 -7 24 -12 38 -12 33 0 50 17
50 48 0 44 -53 67 -84 36z"/>
<path d="M1725 1755 c-5 -2 -27 -6 -47 -10 l-38 -6 0 -138 c0 -111 -3 -141
-15 -151 -13 -11 -15 4 -15 124 0 86 -4 136 -10 136 -6 0 -31 -19 -55 -41 -35
-32 -43 -45 -34 -55 6 -7 9 -25 7 -40 -3 -26 -4 -27 -20 -11 -21 22 -28 11
-37 -57 -4 -28 -11 -50 -16 -48 -6 1 -48 16 -95 32 -91 32 -135 36 -190 17
-24 -8 -35 -18 -35 -32 0 -15 6 -19 25 -17 84 10 138 3 209 -27 41 -17 79 -31
86 -31 6 0 18 -18 25 -41 8 -22 17 -42 22 -45 7 -4 82 63 427 382 12 11 8 16
-30 33 -24 12 -54 21 -66 21 -22 0 -23 -4 -23 -69 0 -48 -4 -72 -15 -81 -12
-10 -15 0 -17 72 -3 83 -9 95 -43 83z m-217 -237 c7 -7 12 -23 12 -37 0 -23
-1 -24 -20 -6 -11 10 -20 26 -20 37 0 21 11 23 28 6z"/>
<path d="M2513 1688 c-216 -115 -256 -128 -409 -128 l-79 -1 -195 -178 c-107
-98 -195 -185 -195 -192 0 -23 111 -43 177 -31 76 14 118 35 168 85 52 52 78
103 87 164 l6 48 -24 -20 c-13 -11 -36 -31 -51 -44 -26 -23 -28 -23 -28 -5 0
11 22 36 50 59 27 22 49 46 50 53 0 8 21 12 68 12 128 1 211 29 387 130 67 39
73 41 145 38 64 -3 75 -1 78 14 5 24 -35 38 -103 38 -44 0 -68 -8 -132 -42z
m-581 -398 c13 -40 14 -51 3 -60 -10 -9 -17 0 -30 39 -15 47 -14 71 4 71 4 0
14 -22 23 -50z m-134 -80 c-1 -18 -6 -30 -15 -30 -16 0 -17 32 -1 48 16 16 17
16 16 -18z"/>
<path d="M1833 1554 c-76 -71 -176 -162 -221 -203 -87 -78 -97 -101 -57 -127
18 -12 28 -5 111 69 210 190 349 321 352 332 1 6 -8 21 -22 34 l-25 23 -138
-128z"/>
<path d="M2770 1660 c0 -5 5 -10 10 -10 6 0 10 5 10 10 0 6 -4 10 -10 10 -5 0
-10 -4 -10 -10z"/>
</g>
</svg>
